<svg width="705" height="123.5" viewBox="0 0 705 123.5" fill="none" xmlns="http://www.w3.org/2000/svg">
<path d="M219.152 42.1935C212.642 40.0212 203.433 46.1657 196.032 56.7222C199.034 42.207 196.415 30.5603 188.431 27.8969C180.202 25.1498 168.621 32.7326 159.19 45.8769C163.977 23.7385 160.119 5.87987 148.009 1.83752C132.527 -3.33009 109.121 15.9291 94.1439 45.4425C94.7973 33.4504 91.3898 24.459 84.0728 22.0169C71.6689 17.8774 52.6607 34.0926 41.2288 58.3817C42.2035 49.2608 39.9544 42.2852 34.603 40.5015C26.1033 37.6654 13.0001 49.0072 5.33204 65.835C-2.33062 82.6628 -1.65561 98.6055 6.84946 101.442C14.5688 104.019 26.0871 94.8977 33.8794 80.593C30.8904 96.6383 33.9955 109.375 42.9271 112.354C54.0431 116.065 70.4728 103.417 81.9884 83.2591C79.7014 101.539 83.9837 115.63 94.5705 119.163C108.662 123.866 129.325 108.331 144.213 83.2429C142.949 94.9895 145.841 103.978 152.729 106.277C161.847 109.321 175.082 99.6822 184.943 83.8447C183.574 93.6483 185.772 101.255 191.396 103.131C199.896 105.967 212.999 94.6252 220.667 77.7974C228.332 60.9696 227.655 45.0269 219.149 42.1908L219.152 42.1935Z" fill="url(#paint0_linear_205_1022)"/>
<path d="M 325.026 88.507 C 325.7297 88.507 326.3537 88.779 326.898 89.323 L 331.986 94.843 C 329.1703 98.331 325.698 101.0033 321.57 102.859 C 317.4737 104.7147 312.546 105.643 306.786 105.643 C 301.6337 105.643 296.994 104.7627 292.866 103.003 C 288.7697 101.2433 285.2657 98.795 282.354 95.659 C 279.4423 92.523 277.2017 88.779 275.634 84.427 C 274.098 80.075 273.33 75.323 273.33 70.171 C 273.33 64.955 274.1623 60.187 275.826 55.867 C 277.4897 51.515 279.8263 47.771 282.834 44.635 C 285.8743 41.499 289.4897 39.067 293.682 37.339 C 297.8743 35.579 302.514 34.699 307.602 34.699 C 312.6583 34.699 317.1377 35.531 321.042 37.195 C 324.978 38.859 328.3217 41.035 331.074 43.723 L 326.754 49.723 C 326.4977 50.107 326.1617 50.443 325.746 50.731 C 325.362 51.019 324.8177 51.163 324.114 51.163 C 323.634 51.163 323.1377 51.035 322.626 50.779 C 322.1143 50.491 321.5537 50.155 320.946 49.771 C 320.3383 49.355 319.6337 48.907 318.834 48.427 C 318.0343 47.947 317.106 47.515 316.05 47.131 C 314.994 46.715 313.7623 46.379 312.354 46.123 C 310.9783 45.835 309.378 45.691 307.554 45.691 C 304.4503 45.691 301.602 46.251 299.01 47.371 C 296.4497 48.459 294.2417 50.059 292.386 52.171 C 290.5303 54.251 289.0903 56.811 288.066 59.851 C 287.0417 62.859 286.53 66.299 286.53 70.171 C 286.53 74.075 287.0743 77.547 288.162 80.587 C 289.2823 83.627 290.7857 86.187 292.674 88.267 C 294.5623 90.347 296.7857 91.947 299.346 93.067 C 301.9063 94.155 304.6577 94.699 307.602 94.699 C 309.3617 94.699 310.9457 94.603 312.354 94.411 C 313.794 94.219 315.1063 93.915 316.29 93.499 C 317.5063 93.083 318.642 92.555 319.698 91.915 C 320.7857 91.243 321.858 90.427 322.914 89.467 C 323.2337 89.179 323.5697 88.955 323.922 88.795 C 324.2743 88.603 324.642 88.507 325.026 88.507 Z M 352.7345 60.907 C 354.6545 59.115 356.7665 57.659 359.0705 56.539 C 361.3745 55.419 364.0788 54.859 367.1825 54.859 C 369.8705 54.859 372.2551 55.323 374.3345 56.251 C 376.4148 57.147 378.1428 58.427 379.5185 60.091 C 380.9268 61.723 381.9828 63.691 382.6865 65.995 C 383.4228 68.267 383.7905 70.779 383.7905 73.531 V 104.875 H 371.9345 V 73.531 C 371.9345 70.523 371.2471 68.203 369.8705 66.571 C 368.4948 64.907 366.3991 64.075 363.5825 64.075 C 361.5348 64.075 359.6148 64.539 357.8225 65.467 C 356.0311 66.395 354.3348 67.659 352.7345 69.259 V 104.875 H 340.8785 V 33.547 H 352.7345 V 60.907 Z M 423.0026 83.851 C 419.5783 84.011 416.6983 84.315 414.3626 84.763 C 412.026 85.179 410.154 85.723 408.7466 86.395 C 407.3383 87.067 406.3303 87.851 405.7226 88.747 C 405.114 89.643 404.8106 90.619 404.8106 91.675 C 404.8106 93.755 405.4183 95.243 406.6346 96.139 C 407.8826 97.035 409.4983 97.483 411.4826 97.483 C 413.9143 97.483 416.01 97.051 417.7706 96.187 C 419.562 95.291 421.3063 93.947 423.0026 92.155 V 83.851 Z M 395.8346 62.491 C 401.4986 57.307 408.3146 54.715 416.2826 54.715 C 419.1626 54.715 421.7383 55.195 424.0106 56.155 C 426.282 57.083 428.202 58.395 429.7706 60.091 C 431.3383 61.755 432.522 63.755 433.3226 66.091 C 434.154 68.427 434.5706 70.987 434.5706 73.771 V 104.875 H 429.1946 C 428.0743 104.875 427.2103 104.7147 426.6026 104.395 C 425.994 104.0427 425.514 103.3553 425.1626 102.331 L 424.1066 98.779 C 422.8586 99.8993 421.6423 100.891 420.4586 101.755 C 419.274 102.5873 418.0423 103.291 416.7626 103.867 C 415.482 104.443 414.1063 104.875 412.6346 105.163 C 411.1946 105.4827 409.5943 105.643 407.8346 105.643 C 405.7543 105.643 403.8343 105.3713 402.0746 104.827 C 400.314 104.251 398.7943 103.4033 397.5146 102.283 C 396.234 101.1627 395.2423 99.7707 394.5386 98.107 C 393.834 96.443 393.4826 94.507 393.4826 92.299 C 393.4826 91.051 393.69 89.819 394.1066 88.603 C 394.5223 87.355 395.1943 86.171 396.1226 85.051 C 397.0826 83.931 398.3143 82.875 399.8186 81.883 C 401.322 80.891 403.1623 80.027 405.3386 79.291 C 407.5466 78.555 410.106 77.963 413.0186 77.515 C 415.9303 77.035 419.2586 76.747 423.0026 76.651 V 73.771 C 423.0026 70.475 422.298 68.043 420.8906 66.475 C 419.4823 64.875 417.45 64.075 414.7946 64.075 C 412.8746 64.075 411.2743 64.299 409.9946 64.747 C 408.7466 65.195 407.6426 65.707 406.6826 66.283 C 405.7226 66.827 404.8423 67.323 404.0426 67.771 C 403.2746 68.219 402.4106 68.443 401.4506 68.443 C 400.6183 68.443 399.9146 68.235 399.3386 67.819 C 398.7626 67.371 398.298 66.859 397.9466 66.283 L 395.8346 62.491 Z M 459.6564 33.547 V 104.875 H 447.8004 V 33.547 H 459.6564 Z M 485.3892 33.547 V 104.875 H 473.5332 V 33.547 H 485.3892 Z M 530.849 74.587 C 530.849 73.051 530.6254 71.611 530.177 70.267 C 529.7614 68.891 529.121 67.691 528.257 66.667 C 527.393 65.643 526.289 64.843 524.945 64.267 C 523.6337 63.659 522.0977 63.355 520.337 63.355 C 516.9137 63.355 514.2094 64.331 512.225 66.283 C 510.2734 68.235 509.0254 71.003 508.481 74.587 H 530.849 Z M 508.241 81.739 C 508.433 84.267 508.8814 86.459 509.585 88.315 C 510.2897 90.139 511.217 91.659 512.369 92.875 C 513.521 94.059 514.8814 94.955 516.449 95.563 C 518.0494 96.139 519.809 96.427 521.729 96.427 C 523.649 96.427 525.2974 96.203 526.673 95.755 C 528.0814 95.307 529.2977 94.811 530.321 94.267 C 531.377 93.723 532.289 93.227 533.057 92.779 C 533.8577 92.331 534.6257 92.107 535.361 92.107 C 536.3537 92.107 537.089 92.475 537.569 93.211 L 540.977 97.531 C 539.6657 99.067 538.193 100.363 536.561 101.419 C 534.929 102.4433 533.2174 103.2747 531.425 103.915 C 529.6654 104.5227 527.8577 104.9547 526.001 105.211 C 524.177 105.4673 522.401 105.595 520.673 105.595 C 517.2497 105.595 514.0654 105.0353 511.121 103.915 C 508.1777 102.763 505.6174 101.083 503.441 98.875 C 501.2657 96.635 499.553 93.883 498.305 90.619 C 497.057 87.323 496.433 83.515 496.433 79.195 C 496.433 75.835 496.9774 72.683 498.065 69.739 C 499.1537 66.763 500.705 64.187 502.721 62.011 C 504.7697 59.803 507.2494 58.059 510.161 56.779 C 513.1054 55.499 516.4174 54.859 520.097 54.859 C 523.2017 54.859 526.0654 55.355 528.689 56.347 C 531.3137 57.339 533.5697 58.795 535.457 60.715 C 537.3454 62.603 538.817 64.939 539.873 67.723 C 540.9617 70.475 541.505 73.627 541.505 77.179 C 541.505 78.971 541.313 80.187 540.929 80.827 C 540.545 81.435 539.8097 81.739 538.721 81.739 H 508.241 Z M 563.4103 61.675 C 564.403 60.683 565.4426 59.771 566.5303 58.939 C 567.6506 58.075 568.819 57.355 570.0343 56.779 C 571.2823 56.171 572.611 55.707 574.0183 55.387 C 575.4266 55.035 576.9626 54.859 578.6263 54.859 C 581.3143 54.859 583.699 55.323 585.7783 56.251 C 587.8586 57.147 589.5866 58.427 590.9623 60.091 C 592.3706 61.723 593.4266 63.691 594.1303 65.995 C 594.8666 68.267 595.2343 70.779 595.2343 73.531 V 104.875 H 583.3783 V 73.531 C 583.3783 70.523 582.691 68.203 581.3143 66.571 C 579.9386 64.907 577.843 64.075 575.0263 64.075 C 572.9786 64.075 571.0586 64.539 569.2663 65.467 C 567.475 66.395 565.7786 67.659 564.1783 69.259 V 104.875 H 552.3223 V 55.627 H 559.5703 C 561.1063 55.627 562.1143 56.347 562.5943 57.787 L 563.4103 61.675 Z M 626.4305 79.051 C 627.9022 79.051 629.1818 78.859 630.2705 78.475 C 631.3582 78.059 632.2538 77.499 632.9585 76.795 C 633.6938 76.091 634.2382 75.243 634.5905 74.251 C 634.9745 73.259 635.1665 72.171 635.1665 70.987 C 635.1665 68.555 634.4302 66.635 632.9585 65.227 C 631.5185 63.787 629.3422 63.067 626.4305 63.067 C 623.5178 63.067 621.3262 63.787 619.8545 65.227 C 618.4145 66.635 617.6945 68.555 617.6945 70.987 C 617.6945 72.139 617.8702 73.211 618.2225 74.203 C 618.6065 75.195 619.1498 76.059 619.8545 76.795 C 620.5898 77.499 621.5018 78.059 622.5905 78.475 C 623.7098 78.859 624.9905 79.051 626.4305 79.051 Z M 639.8225 107.083 C 639.8225 106.123 639.5345 105.3387 638.9585 104.731 C 638.3825 104.1233 637.5982 103.6587 636.6065 103.339 C 635.6138 102.9867 634.4465 102.7313 633.1025 102.571 C 631.7902 102.4107 630.3818 102.2993 628.8785 102.235 C 627.4058 102.139 625.8698 102.0593 624.2705 101.995 C 622.7018 101.9307 621.1658 101.803 619.6625 101.611 C 618.3502 102.3473 617.2778 103.2113 616.4465 104.203 C 615.6458 105.1947 615.2455 106.3467 615.2455 107.659 C 615.2455 108.523 615.4538 109.3227 615.8705 110.059 C 616.3178 110.827 617.0062 111.4827 617.9345 112.027 C 618.8945 112.5713 620.1262 112.987 621.6305 113.275 C 623.1338 113.5947 624.9742 113.755 627.1505 113.755 C 629.3585 113.755 631.2622 113.5793 632.8625 113.227 C 634.4618 112.9073 635.7742 112.4427 636.7985 111.835 C 637.8545 111.259 638.6225 110.5553 639.1025 109.723 C 639.5825 108.9233 639.8225 108.043 639.8225 107.083 Z M 651.6305 57.307 V 61.723 C 651.6305 63.131 650.7818 63.995 649.0865 64.315 L 644.6705 65.131 C 645.3425 66.827 645.6785 68.683 645.6785 70.699 C 645.6785 73.131 645.1822 75.339 644.1905 77.323 C 643.2305 79.275 641.8865 80.939 640.1585 82.315 C 638.4305 83.691 636.3818 84.763 634.0145 85.531 C 631.6778 86.267 629.1502 86.635 626.4305 86.635 C 625.4705 86.635 624.5422 86.587 623.6465 86.491 C 622.7498 86.395 621.8705 86.267 621.0065 86.107 C 619.4705 87.035 618.7025 88.075 618.7025 89.227 C 618.7025 90.219 619.1498 90.955 620.0465 91.435 C 620.9738 91.883 622.1902 92.203 623.6945 92.395 C 625.1978 92.587 626.9105 92.715 628.8305 92.779 C 630.7505 92.811 632.7185 92.907 634.7345 93.067 C 636.7505 93.227 638.7185 93.515 640.6385 93.931 C 642.5585 94.315 644.2702 94.939 645.7745 95.803 C 647.2778 96.667 648.4778 97.851 649.3745 99.355 C 650.3018 100.8267 650.7665 102.7313 650.7665 105.067 C 650.7665 107.2433 650.2222 109.3553 649.1345 111.403 C 648.0785 113.4507 646.5262 115.2747 644.4785 116.875 C 642.4625 118.4753 639.9665 119.755 636.9905 120.715 C 634.0462 121.7067 630.6862 122.203 626.9105 122.203 C 623.1982 122.203 619.9658 121.8353 617.2145 121.099 C 614.4622 120.3953 612.1745 119.4353 610.3505 118.219 C 608.5265 117.0353 607.1662 115.6587 606.2705 114.091 C 605.3738 112.5233 604.9265 110.8913 604.9265 109.195 C 604.9265 106.891 605.6138 104.971 606.9905 103.435 C 608.3978 101.8673 610.3178 100.6193 612.7505 99.691 C 611.4382 99.019 610.3985 98.123 609.6295 97.003 C 608.8625 95.883 608.4785 94.411 608.4785 92.587 C 608.4785 91.851 608.6062 91.099 608.8625 90.331 C 609.1505 89.531 609.5498 88.747 610.0625 87.979 C 610.6058 87.211 611.2778 86.491 612.0785 85.819 C 612.8782 85.115 613.8218 84.491 614.9095 83.947 C 612.4145 82.603 610.4465 80.811 609.0065 78.571 C 607.5982 76.331 606.8945 73.707 606.8945 70.699 C 606.8945 68.267 607.3745 66.075 608.3345 64.123 C 609.3262 62.139 610.6865 60.459 612.4145 59.083 C 614.1742 57.675 616.2382 56.603 618.6065 55.867 C 621.0065 55.131 623.6138 54.763 626.4305 54.763 C 628.5425 54.763 630.5258 54.987 632.3825 55.435 C 634.2382 55.851 635.9345 56.475 637.4705 57.307 H 651.6305 Z M 691.9534 74.587 C 691.9534 73.051 691.7287 71.611 691.2814 70.267 C 690.8647 68.891 690.2254 67.691 689.3614 66.667 C 688.4974 65.643 687.3934 64.843 686.0494 64.267 C 684.737 63.659 683.201 63.355 681.4414 63.355 C 678.017 63.355 675.3127 64.331 673.3294 66.283 C 671.3767 68.235 670.1287 71.003 669.5854 74.587 H 691.9534 Z M 669.3454 81.739 C 669.5374 84.267 669.9847 86.459 670.6894 88.315 C 671.393 90.139 672.3214 91.659 673.4734 92.875 C 674.6254 94.059 675.9847 94.955 677.5534 95.563 C 679.1527 96.139 680.9134 96.427 682.8334 96.427 C 684.7534 96.427 686.4007 96.203 687.7774 95.755 C 689.1847 95.307 690.401 94.811 691.4254 94.267 C 692.4814 93.723 693.3934 93.227 694.1614 92.779 C 694.961 92.331 695.729 92.107 696.4654 92.107 C 697.457 92.107 698.1934 92.475 698.6734 93.211 L 702.0814 97.531 C 700.769 99.067 699.2974 100.363 697.6654 101.419 C 696.0334 102.4433 694.3207 103.2747 692.5294 103.915 C 690.7687 104.5227 688.961 104.9547 687.1054 105.211 C 685.2814 105.4673 683.5054 105.595 681.7774 105.595 C 678.353 105.595 675.1687 105.0353 672.2254 103.915 C 669.281 102.763 666.7207 101.083 664.5454 98.875 C 662.369 96.635 660.6574 93.883 659.4094 90.619 C 658.1614 87.323 657.5374 83.515 657.5374 79.195 C 657.5374 75.835 658.0807 72.683 659.1694 69.739 C 660.257 66.763 661.8094 64.187 663.8254 62.011 C 665.873 59.803 668.3527 58.059 671.2654 56.779 C 674.2087 55.499 677.5207 54.859 681.2014 54.859 C 684.305 54.859 687.1687 55.355 689.7934 56.347 C 692.417 57.339 694.673 58.795 696.5614 60.715 C 698.4487 62.603 699.9214 64.939 700.9774 67.723 C 702.065 70.475 702.6094 73.627 702.6094 77.179 C 702.6094 78.971 702.4174 80.187 702.0334 80.827 C 701.6494 81.435 700.913 81.739 699.8254 81.739 H 669.3454 Z" fill="white"/>
<defs>
<linearGradient id="paint0_linear_205_1022" x1="0" y1="60.5" x2="226" y2="60.5" gradientUnits="userSpaceOnUse">
<stop offset="0.1583" stop-color="#FF4848"/>
<stop offset="0.471154" stop-color="#FF59BA"/>
<stop offset="0.8613" stop-color="#72E2E6"/>
</linearGradient>
</defs>
</svg>
